Coordinates
version=1
nRows=14
nColumns=46
inDegrees=yes

Units are S.I. units (second, meters, Newtons, ...)
Angles are in degrees.

endheader
time	pelvis_tilt	pelvis_list	pelvis_rotation	pelvis_tx	pelvis_ty	pelvis_tz	bb_angle	bb_tx	bb_ty	bb_tz	hip_flexion_r	hip_adduction_r	hip_rotation_r	knee_angle_r	knee_angle_r_beta	ankle_angle_r	subtalar_angle_r	mtp_angle_r	crank_angle_r	hip_flexion_l	hip_adduction_l	hip_rotation_l	knee_angle_l	knee_angle_l_beta	ankle_angle_l	subtalar_angle_l	mtp_angle_l	crank_angle_l	lumbar_extension	lumbar_bending	lumbar_rotation	arm_flex_r	arm_add_r	arm_rot_r	elbow_flex_r	pro_sup_r	wrist_flex_r	wrist_dev_r	arm_flex_l	arm_add_l	arm_rot_l	elbow_flex_l	pro_sup_l	wrist_flex_l	wrist_dev_l
      0.00000000	    -53.78759509	    -41.24925994	     -5.42759556	      0.34309377	      1.02969943	     -0.18850864	      0.00000000	      0.50000000	      0.00000000	      0.25000000	     81.10158289	     26.99341860	    -16.07022652	     64.36494506	      1.12338021	    -39.93888898	      0.20430708	      0.00000000	      0.00000000	    119.97783178	     -6.27626461	     39.97402202	     84.50847587	      1.47495115	     12.06889535	      6.94842991	      0.00000000	      0.00000000	    -14.42403182	     28.97382341	     12.17846897	     62.15701014	    -37.36803581	     65.58168459	     62.24082214	     61.88600925	      0.00000000	      0.00000000	     47.99788128	    -16.70368521	     26.69965594	     79.47330618	     55.76997733	      0.00000000	      0.00000000
      0.00500000	    -55.19176809	    -40.79571151	     -6.99358779	      0.34216504	      1.02797401	     -0.18642204	      0.00000000	      0.50000000	      0.00000000	      0.25000000	     83.12909520	     26.89083681	    -16.55057258	     66.19792460	      1.15537174	    -39.93683621	     -0.12277211	      0.00000000	      0.00000000	    119.97773374	     -7.57111091	     39.97329228	     82.42600833	      1.43860523	     11.14038801	      6.98477404	      0.00000000	      0.00000000	    -13.74343535	     28.75399732	     12.30514157	     62.35904541	    -36.87260999	     65.36841984	     62.51112641	     61.99370934	      0.00000000	      0.00000000	     47.23331760	    -18.27770684	     26.74883022	     81.23830861	     56.00755161	      0.00000000	      0.00000000
      0.01000000	    -56.62058462	    -40.22343273	     -8.64246537	      0.34148859	      1.02629303	     -0.18452773	      0.00000000	      0.50000000	      0.00000000	      0.25000000	     85.09989836	     26.92393911	    -16.82686434	     67.92673712	      1.18554521	    -39.93460600	     -0.42223140	      0.00000000	      0.00000000	    119.97746361	     -8.96666139	     39.97241891	     80.44226838	      1.40398244	     10.29497773	      7.07922839	      0.00000000	      0.00000000	    -12.90079188	     27.77106080	     12.89629907	     61.94137129	    -37.05868609	     65.45339106	     62.47940306	     62.02646937	      0.00000000	      0.00000000	     47.18854548	    -18.17582625	     26.88640652	     81.76892650	     56.09148656	      0.00000000	      0.00000000
      0.01500000	    -57.75565476	    -39.91754818	     -9.98767676	      0.34088461	      1.02464800	     -0.18309582	      0.00000000	      0.50000000	      0.00000000	      0.25000000	     86.79296876	     27.16376269	    -17.09534990	     69.41705513	      1.21155617	    -39.93207518	     -0.83086104	      0.00000000	      0.00000000	    119.97725143	    -10.31666381	     39.97152388	     78.56565120	      1.37122929	      9.41406343	      6.97169445	      0.00000000	      0.00000000	    -12.41959790	     27.20141545	     13.47605505	     61.17904380	    -37.48973792	     64.95113223	     63.70376696	     62.22031463	      0.00000000	      0.00000000	     47.83519027	    -19.76424466	     29.37614932	     82.84214626	     56.46353005	      0.00000000	      0.00000000
      0.02000000	    -23.45610429	     -0.45273944	     15.40338224	      0.40225302	      1.16938875	     -0.24261568	      0.00000000	      0.50000000	      0.00000000	      0.25000000	     33.61783242	     -8.12604623	      4.24173946	     56.69393551	      0.98949584	    -39.93790916	      2.42979182	      0.00000000	      0.00000000	     54.40365174	      6.97123662	      9.68047463	     52.08534873	      0.90906083	      3.05184287	     -7.20532904	      0.00000000	      0.00000000	    -58.53770663	     -2.52223180	    -12.68215607	     58.74272978	    -22.87901375	     39.67691035	     53.23208872	     56.93959841	      0.00000000	      0.00000000	     65.05814619	    -21.01705073	     35.14946521	     74.47028228	     55.16530343	      0.00000000	      0.00000000
      0.02500000	    -23.41576510	     -1.36546353	     14.54539877	      0.40291672	      1.16737305	     -0.24323692	      0.00000000	      0.50000000	      0.00000000	      0.25000000	     34.66605037	     -6.85035278	      4.50806815	     58.27963926	      1.01717159	    -39.93557923	      1.89709108	      0.00000000	      0.00000000	     53.11602453	      5.96183075	     10.43790802	     49.71270034	      0.86765030	      1.95817997	     -7.17611564	      0.00000000	      0.00000000	    -58.29909941	     -2.42431967	    -11.96285611	     59.13574235	    -22.88807456	     39.59168716	     53.33770023	     56.94590181	      0.00000000	      0.00000000	     64.75583264	    -21.29218686	     35.50476735	     74.40894012	     55.19716746	      0.00000000	      0.00000000
      0.03000000	    -23.65440644	     -2.20090199	     13.28188605	      0.40325293	      1.16504965	     -0.24298008	      0.00000000	      0.50000000	      0.00000000	      0.25000000	     36.20776093	     -5.62910749	      4.99333726	     60.01094292	      1.04738854	    -39.93287654	      1.78008163	      0.00000000	      0.00000000	     52.15102179	      4.44132070	     10.46230463	     47.48555920	      0.82877936	      0.37576399	     -7.88128240	      0.00000000	      0.00000000	    -57.80334054	     -2.88907590	    -10.63878220	     58.97264312	    -23.97399472	     40.18373521	     54.12393241	     57.25797782	      0.00000000	      0.00000000	     65.56371849	    -22.38655469	     38.05079088	     74.73126059	     55.44797468	      0.00000000	      0.00000000
      0.03500000	    -23.80635723	     -3.24251883	     12.18473864	      0.40349342	      1.16281002	     -0.24305267	      0.00000000	      0.50000000	      0.00000000	      0.25000000	     37.68727270	     -4.36299362	      5.13271135	     61.76743670	      1.07804514	    -39.93011265	      1.73453091	      0.00000000	      0.00000000	     50.92502283	      2.99710874	     10.99412135	     45.00588673	      0.78550091	     -0.98789497	     -8.64304768	      0.00000000	      0.00000000	    -57.27715028	     -2.90120596	     -9.34562130	     58.94795970	    -24.38496262	     40.64468670	     54.40678742	     57.39281106	      0.00000000	      0.00000000	     65.39877536	    -22.43833329	     38.24773473	     74.83913761	     55.45870471	      0.00000000	      0.00000000
      0.04000000	    -23.93170622	     -4.41323190	     10.90258881	      0.40375036	      1.16032821	     -0.24315129	      0.00000000	      0.50000000	      0.00000000	      0.25000000	     39.18403211	     -2.85662724	      5.33694268	     63.53319991	      1.10886352	    -39.92737492	      1.75267239	      0.00000000	      0.00000000	     49.72242963	      1.41659365	     11.85700075	     42.80392378	      0.74706940	     -2.21035513	     -9.64064422	      0.00000000	      0.00000000	    -56.68975443	     -2.84253665	     -7.85264724	     59.01259483	    -24.95643596	     41.33154359	     55.12466259	     57.61864428	      0.00000000	      0.00000000	     64.99035043	    -22.54398945	     38.20317656	     74.97335283	     55.45300534	      0.00000000	      0.00000000
      0.04500000	    -23.87814965	     -5.45571851	      9.58760082	      0.40421016	      1.15845184	     -0.24337248	      0.00000000	      0.50000000	      0.00000000	      0.25000000	     40.44696735	     -1.39406730	      5.60851944	     65.23866278	      1.13862947	    -39.92489828	      1.88536754	      0.00000000	      0.00000000	     48.28924448	     -0.38376402	     11.99965866	     40.57572465	      0.70817999	     -3.17766760	     -9.43667368	      0.00000000	      0.00000000	    -56.42449279	     -2.64590522	     -6.46534440	     59.40210119	    -25.86315570	     42.63844418	     56.29268532	     57.99994288	      0.00000000	      0.00000000	     63.90250243	    -22.89972255	     36.64387997	     75.86293579	     55.38114047	      0.00000000	      0.00000000
      0.05000000	    -23.77262602	     -6.54763027	      8.36447081	      0.40462694	      1.15654286	     -0.24388048	      0.00000000	      0.50000000	      0.00000000	      0.25000000	     41.65942771	     -0.00140465	      5.61667203	     66.94467287	      1.16840496	    -39.92320653	      2.01948334	      0.00000000	      0.00000000	     46.75056545	     -2.13205860	     12.32782537	     38.38606426	      0.66996321	     -4.01973615	     -9.45816661	      0.00000000	      0.00000000	    -56.10332343	     -2.33948805	     -5.12854734	     59.61316124	    -25.77818366	     42.78606129	     56.39193686	     58.03159232	      0.00000000	      0.00000000	     63.36507145	    -23.29497579	     36.51259726	     75.80074255	     55.36354238	      0.00000000	      0.00000000
      0.05500000	    -25.63376230	     -7.75078375	      5.25806780	      0.40180969	      1.15268206	     -0.24243989	      0.00000000	      0.50000000	      0.00000000	      0.25000000	     51.31828807	      0.39633227	      2.16857979	     78.85287553	      1.37624230	    -22.41103273	     12.55122134	      0.00000000	      0.00000000	     47.34959004	     -4.85067807	     11.69033785	     36.41804650	      0.63561482	     -5.54020220	    -10.27146500	      0.00000000	      0.00000000	    -53.82852098	     -3.12654724	     -2.97080943	     60.44084298	    -26.43962190	     44.79589883	     56.80880896	     58.27729716	      0.00000000	      0.00000000	     61.36263760	    -23.25305644	     34.38095021	     76.88337431	     55.22285532	      0.00000000	      0.00000000
      0.06000000	    -25.88878211	     -8.56676853	      3.71457633	      0.40170887	      1.14998699	     -0.24279278	      0.00000000	      0.50000000	      0.00000000	      0.25000000	     53.13188908	      1.71311415	      2.36695209	     80.88343948	      1.41168233	    -21.91564549	     13.28282403	      0.00000000	      0.00000000	     46.09600575	     -6.52875188	     11.52684869	     34.47987444	      0.60178733	     -6.46008462	    -10.37470766	      0.00000000	      0.00000000	    -53.17963975	     -2.97145692	     -1.88927595	     61.07126524	    -26.15732171	     45.86925240	     56.58085040	     58.33340416	      0.00000000	      0.00000000	     59.67196168	    -21.80007540	     31.54228005	     76.60802120	     54.84725969	      0.00000000	      0.00000000
      0.06500000	    -26.01540464	     -9.38728905	      2.17383172	      0.40173384	      1.14766770	     -0.24311842	      0.00000000	      0.50000000	      0.00000000	      0.25000000	     54.71968076	      3.07715407	      2.50842444	     82.75877355	      1.44441308	    -21.51900923	     13.96529277	      0.00000000	      0.00000000	     44.67124487	     -8.26296143	     11.18120765	     32.62988587	      0.56949894	     -7.21613816	    -10.39927450	      0.00000000	      0.00000000	    -52.69002282	     -2.68879667	     -0.53026397	     61.26952102	    -26.05197989	     46.14352518	     56.82823260	     58.37336853	      0.00000000	      0.00000000	     58.73742787	    -22.34311618	     31.32519491	     76.62861017	     54.82643193	      0.00000000	      0.00000000
